# xmcd
#
# Track frame offsets: 
#        150
#        11785
#        25782
#        39703
#        50665
#        65340
#        80402
#        108037
#        120571
#        133845
#        147022
#        161940
#        177158
#        199820
#
# Disc length: 2825 seconds
#
# Revision: 0
# Processed by: cddbd v1.5.2PL0 Copyright (c) Steve Scherf et al.
# Submitted via: ExactAudioCopy v0.99pb3
#
DISCID=c00b070e
DTITLE=Catherine Russell - Sentimental Streak
DYEAR=2008
DGENRE=Vocal Jazz
TTITLE0=So Little Time (So Much To Do)
TTITLE1=I'm Lazy, That's All
TTITLE2=Kitchen Man
TTITLE3=Oh Yes, Take Another Guess
TTITLE4=New Orleans
TTITLE5=My Old Daddy's Got A Brand New Way To Love
TTITLE6=South To A Warmer Place
TTITLE7=Thrill Me
TTITLE8=You Better Watch Yourself, Bub
TTITLE9=I've Got That Thing
TTITLE10=I Don't Care Who Knows
TTITLE11=Broken Nose
TTITLE12=Luci
TTITLE13=You For Me, Me For You
EXTD=
EXTT0=
EXTT1=
EXTT2=
EXTT3=
EXTT4=
EXTT5=
EXTT6=
EXTT7=
EXTT8=
EXTT9=
EXTT10=
EXTT11=
EXTT12=
EXTT13=
PLAYORDER=
